solid Mesh
  facet normal -1.000000 0.000000 0.000000
    outer loop
      vertex -291.500000 -10.000000 0.000000
      vertex -291.500000 -10.000000 65.000000
      vertex -291.500000 10.000000 0.000000
    endloop
  endfacet
  facet normal -1.000000 0.000000 0.000000
    outer loop
      vertex -291.500000 10.000000 0.000000
      vertex -291.500000 -10.000000 65.000000
      vertex -291.500000 10.000000 65.000000
    endloop
  endfacet
  facet normal 0.000000 0.000000 1.000000
    outer loop
      vertex -26.500000 -32.000000 65.000000
      vertex -51.500000 -10.000000 65.000000
      vertex -51.500000 -252.000000 65.000000
    endloop
  endfacet
  facet normal 0.000000 0.000000 1.000000
    outer loop
      vertex -26.500000 -32.000000 65.000000
      vertex -51.500000 -252.000000 65.000000
      vertex -26.500000 -252.000000 65.000000
    endloop
  endfacet
  facet normal 0.000000 0.000000 1.000000
    outer loop
      vertex -35.500000 -12.500000 65.000000
      vertex -51.500000 -10.000000 65.000000
      vertex -26.500000 -32.000000 65.000000
    endloop
  endfacet
  facet normal 0.000000 0.000000 1.000000
    outer loop
      vertex -51.500000 10.000000 65.000000
      vertex -291.500000 10.000000 65.000000
      vertex -291.500000 -10.000000 65.000000
    endloop
  endfacet
  facet normal 0.000000 0.000000 1.000000
    outer loop
      vertex -51.500000 10.000000 65.000000
      vertex -291.500000 -10.000000 65.000000
      vertex -51.500000 -10.000000 65.000000
    endloop
  endfacet
  facet normal 0.000000 0.000000 1.000000
    outer loop
      vertex -35.500000 12.500000 65.000000
      vertex -51.500000 10.000000 65.000000
      vertex -51.500000 -10.000000 65.000000
    endloop
  endfacet
  facet normal 0.000000 0.000000 1.000000
    outer loop
      vertex -35.500000 12.500000 65.000000
      vertex -51.500000 -10.000000 65.000000
      vertex -35.500000 -12.500000 65.000000
    endloop
  endfacet
  facet normal 0.000000 0.000000 1.000000
    outer loop
      vertex 23.500000 -32.000000 65.000000
      vertex 23.500000 -252.000000 65.000000
      vertex 48.500000 -252.000000 65.000000
    endloop
  endfacet
  facet normal 0.000000 0.000000 1.000000
    outer loop
      vertex 23.500000 -32.000000 65.000000
      vertex -35.500000 -12.500000 65.000000
      vertex -26.500000 -32.000000 65.000000
    endloop
  endfacet
  facet normal 0.000000 0.000000 1.000000
    outer loop
      vertex -26.500000 33.000000 65.000000
      vertex -51.500000 10.000000 65.000000
      vertex -35.500000 12.500000 65.000000
    endloop
  endfacet
  facet normal 0.000000 0.000000 1.000000
    outer loop
      vertex 34.500000 -12.500000 65.000000
      vertex -35.500000 -12.500000 65.000000
      vertex 23.500000 -32.000000 65.000000
    endloop
  endfacet
  facet normal 0.000000 0.000000 1.000000
    outer loop
      vertex 48.500000 -10.000000 65.000000
      vertex 23.500000 -32.000000 65.000000
      vertex 48.500000 -252.000000 65.000000
    endloop
  endfacet
  facet normal 0.000000 0.000000 1.000000
    outer loop
      vertex 48.500000 -10.000000 65.000000
      vertex 34.500000 -12.500000 65.000000
      vertex 23.500000 -32.000000 65.000000
    endloop
  endfacet
  facet normal 0.000000 0.000000 1.000000
    outer loop
      vertex 23.500000 33.000000 65.000000
      vertex -35.500000 12.500000 65.000000
      vertex 34.500000 12.500000 65.000000
    endloop
  endfacet
  facet normal 0.000000 0.000000 1.000000
    outer loop
      vertex 23.500000 33.000000 65.000000
      vertex -26.500000 33.000000 65.000000
      vertex -35.500000 12.500000 65.000000
    endloop
  endfacet
  facet normal 0.000000 0.000000 1.000000
    outer loop
      vertex 48.500000 10.000000 65.000000
      vertex 34.500000 12.500000 65.000000
      vertex 34.500000 -12.500000 65.000000
    endloop
  endfacet
  facet normal 0.000000 0.000000 1.000000
    outer loop
      vertex 48.500000 10.000000 65.000000
      vertex 23.500000 33.000000 65.000000
      vertex 34.500000 12.500000 65.000000
    endloop
  endfacet
  facet normal 0.000000 0.000000 1.000000
    outer loop
      vertex 48.500000 10.000000 65.000000
      vertex 34.500000 -12.500000 65.000000
      vertex 48.500000 -10.000000 65.000000
    endloop
  endfacet
  facet normal 0.000000 0.000000 1.000000
    outer loop
      vertex -51.500000 253.000000 65.000000
      vertex -51.500000 10.000000 65.000000
      vertex -26.500000 33.000000 65.000000
    endloop
  endfacet
  facet normal 0.000000 0.000000 1.000000
    outer loop
      vertex -26.500000 253.000000 65.000000
      vertex -51.500000 253.000000 65.000000
      vertex -26.500000 33.000000 65.000000
    endloop
  endfacet
  facet normal 0.000000 0.000000 1.000000
    outer loop
      vertex 288.500000 10.000000 65.000000
      vertex 48.500000 -10.000000 65.000000
      vertex 288.500000 -10.000000 65.000000
    endloop
  endfacet
  facet normal 0.000000 0.000000 1.000000
    outer loop
      vertex 288.500000 10.000000 65.000000
      vertex 48.500000 10.000000 65.000000
      vertex 48.500000 -10.000000 65.000000
    endloop
  endfacet
  facet normal 0.000000 0.000000 1.000000
    outer loop
      vertex 48.500000 253.000000 65.000000
      vertex 23.500000 253.000000 65.000000
      vertex 23.500000 33.000000 65.000000
    endloop
  endfacet
  facet normal 0.000000 0.000000 1.000000
    outer loop
      vertex 48.500000 253.000000 65.000000
      vertex 23.500000 33.000000 65.000000
      vertex 48.500000 10.000000 65.000000
    endloop
  endfacet
  facet normal 0.000000 1.000000 0.000000
    outer loop
      vertex -51.500000 10.000000 65.000000
      vertex -51.500000 10.000000 0.000000
      vertex -291.500000 10.000000 0.000000
    endloop
  endfacet
  facet normal 0.000000 1.000000 0.000000
    outer loop
      vertex -51.500000 10.000000 65.000000
      vertex -291.500000 10.000000 0.000000
      vertex -291.500000 10.000000 65.000000
    endloop
  endfacet
  facet normal 0.000000 0.000000 -1.000000
    outer loop
      vertex -51.500000 -10.000000 0.000000
      vertex -26.500000 -32.000000 0.000000
      vertex -51.500000 -252.000000 0.000000
    endloop
  endfacet
  facet normal 0.000000 0.000000 -1.000000
    outer loop
      vertex -51.500000 -252.000000 0.000000
      vertex -26.500000 -32.000000 0.000000
      vertex -26.500000 -252.000000 0.000000
    endloop
  endfacet
  facet normal 0.000000 0.000000 -1.000000
    outer loop
      vertex -51.500000 -10.000000 0.000000
      vertex -35.500000 -12.500000 0.000000
      vertex -26.500000 -32.000000 0.000000
    endloop
  endfacet
  facet normal 0.000000 0.000000 -1.000000
    outer loop
      vertex -291.500000 10.000000 0.000000
      vertex -51.500000 10.000000 0.000000
      vertex -291.500000 -10.000000 0.000000
    endloop
  endfacet
  facet normal 0.000000 0.000000 -1.000000
    outer loop
      vertex -291.500000 -10.000000 0.000000
      vertex -51.500000 10.000000 0.000000
      vertex -51.500000 -10.000000 0.000000
    endloop
  endfacet
  facet normal 0.000000 0.000000 -1.000000
    outer loop
      vertex -51.500000 10.000000 0.000000
      vertex -35.500000 12.500000 0.000000
      vertex -51.500000 -10.000000 0.000000
    endloop
  endfacet
  facet normal 0.000000 0.000000 -1.000000
    outer loop
      vertex -51.500000 -10.000000 0.000000
      vertex -35.500000 12.500000 0.000000
      vertex -35.500000 -12.500000 0.000000
    endloop
  endfacet
  facet normal 0.000000 0.000000 -1.000000
    outer loop
      vertex 23.500000 -252.000000 0.000000
      vertex 23.500000 -32.000000 0.000000
      vertex 48.500000 -252.000000 0.000000
    endloop
  endfacet
  facet normal 0.000000 0.000000 -1.000000
    outer loop
      vertex -35.500000 -12.500000 0.000000
      vertex 23.500000 -32.000000 0.000000
      vertex -26.500000 -32.000000 0.000000
    endloop
  endfacet
  facet normal 0.000000 0.000000 -1.000000
    outer loop
      vertex -51.500000 10.000000 0.000000
      vertex -26.500000 33.000000 0.000000
      vertex -35.500000 12.500000 0.000000
    endloop
  endfacet
  facet normal 0.000000 0.000000 -1.000000
    outer loop
      vertex -35.500000 -12.500000 0.000000
      vertex 34.500000 -12.500000 0.000000
      vertex 23.500000 -32.000000 0.000000
    endloop
  endfacet
  facet normal 0.000000 0.000000 -1.000000
    outer loop
      vertex 23.500000 -32.000000 0.000000
      vertex 48.500000 -10.000000 0.000000
      vertex 48.500000 -252.000000 0.000000
    endloop
  endfacet
  facet normal 0.000000 -0.000000 -1.000000
    outer loop
      vertex 34.500000 -12.500000 0.000000
      vertex 48.500000 -10.000000 0.000000
      vertex 23.500000 -32.000000 0.000000
    endloop
  endfacet
  facet normal 0.000000 0.000000 -1.000000
    outer loop
      vertex -35.500000 12.500000 0.000000
      vertex 23.500000 33.000000 0.000000
      vertex 34.500000 12.500000 0.000000
    endloop
  endfacet
  facet normal 0.000000 -0.000000 -1.000000
    outer loop
      vertex -26.500000 33.000000 0.000000
      vertex 23.500000 33.000000 0.000000
      vertex -35.500000 12.500000 0.000000
    endloop
  endfacet
  facet normal 0.000000 0.000000 -1.000000
    outer loop
      vertex 34.500000 12.500000 0.000000
      vertex 48.500000 10.000000 0.000000
      vertex 34.500000 -12.500000 0.000000
    endloop
  endfacet
  facet normal 0.000000 0.000000 -1.000000
    outer loop
      vertex 23.500000 33.000000 0.000000
      vertex 48.500000 10.000000 0.000000
      vertex 34.500000 12.500000 0.000000
    endloop
  endfacet
  facet normal 0.000000 0.000000 -1.000000
    outer loop
      vertex 34.500000 -12.500000 0.000000
      vertex 48.500000 10.000000 0.000000
      vertex 48.500000 -10.000000 0.000000
    endloop
  endfacet
  facet normal 0.000000 0.000000 -1.000000
    outer loop
      vertex -51.500000 10.000000 0.000000
      vertex -51.500000 253.000000 0.000000
      vertex -26.500000 33.000000 0.000000
    endloop
  endfacet
  facet normal 0.000000 0.000000 -1.000000
    outer loop
      vertex -51.500000 253.000000 0.000000
      vertex -26.500000 253.000000 0.000000
      vertex -26.500000 33.000000 0.000000
    endloop
  endfacet
  facet normal 0.000000 0.000000 -1.000000
    outer loop
      vertex 48.500000 -10.000000 0.000000
      vertex 288.500000 10.000000 0.000000
      vertex 288.500000 -10.000000 0.000000
    endloop
  endfacet
  facet normal 0.000000 0.000000 -1.000000
    outer loop
      vertex 48.500000 10.000000 0.000000
      vertex 288.500000 10.000000 0.000000
      vertex 48.500000 -10.000000 0.000000
    endloop
  endfacet
  facet normal 0.000000 0.000000 -1.000000
    outer loop
      vertex 23.500000 253.000000 0.000000
      vertex 48.500000 253.000000 0.000000
      vertex 23.500000 33.000000 0.000000
    endloop
  endfacet
  facet normal 0.000000 0.000000 -1.000000
    outer loop
      vertex 23.500000 33.000000 0.000000
      vertex 48.500000 253.000000 0.000000
      vertex 48.500000 10.000000 0.000000
    endloop
  endfacet
  facet normal 0.000000 -1.000000 0.000000
    outer loop
      vertex -51.500000 -10.000000 0.000000
      vertex -51.500000 -10.000000 65.000000
      vertex -291.500000 -10.000000 0.000000
    endloop
  endfacet
  facet normal 0.000000 -1.000000 0.000000
    outer loop
      vertex -291.500000 -10.000000 0.000000
      vertex -51.500000 -10.000000 65.000000
      vertex -291.500000 -10.000000 65.000000
    endloop
  endfacet
  facet normal -1.000000 0.000000 0.000000
    outer loop
      vertex -51.500000 253.000000 0.000000
      vertex -51.500000 10.000000 0.000000
      vertex -51.500000 253.000000 65.000000
    endloop
  endfacet
  facet normal -1.000000 0.000000 0.000000
    outer loop
      vertex -51.500000 10.000000 0.000000
      vertex -51.500000 10.000000 65.000000
      vertex -51.500000 253.000000 65.000000
    endloop
  endfacet
  facet normal 0.000000 1.000000 0.000000
    outer loop
      vertex -26.500000 253.000000 65.000000
      vertex -26.500000 253.000000 0.000000
      vertex -51.500000 253.000000 0.000000
    endloop
  endfacet
  facet normal 0.000000 1.000000 0.000000
    outer loop
      vertex -26.500000 253.000000 65.000000
      vertex -51.500000 253.000000 0.000000
      vertex -51.500000 253.000000 65.000000
    endloop
  endfacet
  facet normal 1.000000 0.000000 0.000000
    outer loop
      vertex -26.500000 33.000000 65.000000
      vertex -26.500000 33.000000 0.000000
      vertex -26.500000 253.000000 0.000000
    endloop
  endfacet
  facet normal 1.000000 -0.000000 0.000000
    outer loop
      vertex -26.500000 33.000000 65.000000
      vertex -26.500000 253.000000 0.000000
      vertex -26.500000 253.000000 65.000000
    endloop
  endfacet
  facet normal 0.000000 1.000000 0.000000
    outer loop
      vertex 23.500000 33.000000 65.000000
      vertex 23.500000 33.000000 0.000000
      vertex -26.500000 33.000000 0.000000
    endloop
  endfacet
  facet normal 0.000000 1.000000 0.000000
    outer loop
      vertex 23.500000 33.000000 65.000000
      vertex -26.500000 33.000000 0.000000
      vertex -26.500000 33.000000 65.000000
    endloop
  endfacet
  facet normal -1.000000 0.000000 0.000000
    outer loop
      vertex 23.500000 33.000000 0.000000
      vertex 23.500000 33.000000 65.000000
      vertex 23.500000 253.000000 0.000000
    endloop
  endfacet
  facet normal -1.000000 0.000000 0.000000
    outer loop
      vertex 23.500000 253.000000 0.000000
      vertex 23.500000 33.000000 65.000000
      vertex 23.500000 253.000000 65.000000
    endloop
  endfacet
  facet normal 0.000000 1.000000 0.000000
    outer loop
      vertex 48.500000 253.000000 65.000000
      vertex 48.500000 253.000000 0.000000
      vertex 23.500000 253.000000 0.000000
    endloop
  endfacet
  facet normal 0.000000 1.000000 0.000000
    outer loop
      vertex 48.500000 253.000000 65.000000
      vertex 23.500000 253.000000 0.000000
      vertex 23.500000 253.000000 65.000000
    endloop
  endfacet
  facet normal 1.000000 0.000000 0.000000
    outer loop
      vertex 48.500000 10.000000 0.000000
      vertex 48.500000 253.000000 0.000000
      vertex 48.500000 253.000000 65.000000
    endloop
  endfacet
  facet normal 1.000000 -0.000000 0.000000
    outer loop
      vertex 48.500000 10.000000 65.000000
      vertex 48.500000 10.000000 0.000000
      vertex 48.500000 253.000000 65.000000
    endloop
  endfacet
  facet normal 0.000000 1.000000 0.000000
    outer loop
      vertex 288.500000 10.000000 65.000000
      vertex 288.500000 10.000000 0.000000
      vertex 48.500000 10.000000 0.000000
    endloop
  endfacet
  facet normal 0.000000 1.000000 0.000000
    outer loop
      vertex 288.500000 10.000000 65.000000
      vertex 48.500000 10.000000 0.000000
      vertex 48.500000 10.000000 65.000000
    endloop
  endfacet
  facet normal 1.000000 0.000000 0.000000
    outer loop
      vertex 288.500000 -10.000000 65.000000
      vertex 288.500000 -10.000000 0.000000
      vertex 288.500000 10.000000 0.000000
    endloop
  endfacet
  facet normal 1.000000 -0.000000 0.000000
    outer loop
      vertex 288.500000 -10.000000 65.000000
      vertex 288.500000 10.000000 0.000000
      vertex 288.500000 10.000000 65.000000
    endloop
  endfacet
  facet normal 0.000000 -1.000000 0.000000
    outer loop
      vertex 288.500000 -10.000000 0.000000
      vertex 288.500000 -10.000000 65.000000
      vertex 48.500000 -10.000000 0.000000
    endloop
  endfacet
  facet normal 0.000000 -1.000000 0.000000
    outer loop
      vertex 48.500000 -10.000000 0.000000
      vertex 288.500000 -10.000000 65.000000
      vertex 48.500000 -10.000000 65.000000
    endloop
  endfacet
  facet normal 1.000000 0.000000 0.000000
    outer loop
      vertex 48.500000 -252.000000 0.000000
      vertex 48.500000 -10.000000 0.000000
      vertex 48.500000 -10.000000 65.000000
    endloop
  endfacet
  facet normal 1.000000 -0.000000 0.000000
    outer loop
      vertex 48.500000 -252.000000 65.000000
      vertex 48.500000 -252.000000 0.000000
      vertex 48.500000 -10.000000 65.000000
    endloop
  endfacet
  facet normal 0.000000 -1.000000 0.000000
    outer loop
      vertex 48.500000 -252.000000 0.000000
      vertex 48.500000 -252.000000 65.000000
      vertex 23.500000 -252.000000 0.000000
    endloop
  endfacet
  facet normal 0.000000 -1.000000 0.000000
    outer loop
      vertex 23.500000 -252.000000 0.000000
      vertex 48.500000 -252.000000 65.000000
      vertex 23.500000 -252.000000 65.000000
    endloop
  endfacet
  facet normal -1.000000 0.000000 0.000000
    outer loop
      vertex 23.500000 -252.000000 0.000000
      vertex 23.500000 -252.000000 65.000000
      vertex 23.500000 -32.000000 0.000000
    endloop
  endfacet
  facet normal -1.000000 0.000000 0.000000
    outer loop
      vertex 23.500000 -32.000000 0.000000
      vertex 23.500000 -252.000000 65.000000
      vertex 23.500000 -32.000000 65.000000
    endloop
  endfacet
  facet normal 0.000000 -1.000000 0.000000
    outer loop
      vertex 23.500000 -32.000000 0.000000
      vertex 23.500000 -32.000000 65.000000
      vertex -26.500000 -32.000000 0.000000
    endloop
  endfacet
  facet normal 0.000000 -1.000000 0.000000
    outer loop
      vertex -26.500000 -32.000000 0.000000
      vertex 23.500000 -32.000000 65.000000
      vertex -26.500000 -32.000000 65.000000
    endloop
  endfacet
  facet normal 1.000000 0.000000 0.000000
    outer loop
      vertex -26.500000 -252.000000 65.000000
      vertex -26.500000 -252.000000 0.000000
      vertex -26.500000 -32.000000 0.000000
    endloop
  endfacet
  facet normal 1.000000 -0.000000 0.000000
    outer loop
      vertex -26.500000 -252.000000 65.000000
      vertex -26.500000 -32.000000 0.000000
      vertex -26.500000 -32.000000 65.000000
    endloop
  endfacet
  facet normal 0.000000 -1.000000 0.000000
    outer loop
      vertex -26.500000 -252.000000 0.000000
      vertex -26.500000 -252.000000 65.000000
      vertex -51.500000 -252.000000 0.000000
    endloop
  endfacet
  facet normal 0.000000 -1.000000 0.000000
    outer loop
      vertex -51.500000 -252.000000 0.000000
      vertex -26.500000 -252.000000 65.000000
      vertex -51.500000 -252.000000 65.000000
    endloop
  endfacet
  facet normal -1.000000 0.000000 0.000000
    outer loop
      vertex -51.500000 -10.000000 0.000000
      vertex -51.500000 -252.000000 0.000000
      vertex -51.500000 -10.000000 65.000000
    endloop
  endfacet
  facet normal -1.000000 0.000000 0.000000
    outer loop
      vertex -51.500000 -252.000000 0.000000
      vertex -51.500000 -252.000000 65.000000
      vertex -51.500000 -10.000000 65.000000
    endloop
  endfacet
  facet normal 0.000000 1.000000 0.000000
    outer loop
      vertex 34.500000 -12.500000 65.000000
      vertex 34.500000 -12.500000 0.000000
      vertex -35.500000 -12.500000 0.000000
    endloop
  endfacet
  facet normal 0.000000 1.000000 0.000000
    outer loop
      vertex 34.500000 -12.500000 65.000000
      vertex -35.500000 -12.500000 0.000000
      vertex -35.500000 -12.500000 65.000000
    endloop
  endfacet
  facet normal -1.000000 0.000000 0.000000
    outer loop
      vertex 34.500000 -12.500000 0.000000
      vertex 34.500000 -12.500000 65.000000
      vertex 34.500000 12.500000 0.000000
    endloop
  endfacet
  facet normal -1.000000 0.000000 0.000000
    outer loop
      vertex 34.500000 12.500000 0.000000
      vertex 34.500000 -12.500000 65.000000
      vertex 34.500000 12.500000 65.000000
    endloop
  endfacet
  facet normal 0.000000 -1.000000 0.000000
    outer loop
      vertex 34.500000 12.500000 0.000000
      vertex 34.500000 12.500000 65.000000
      vertex -35.500000 12.500000 0.000000
    endloop
  endfacet
  facet normal 0.000000 -1.000000 0.000000
    outer loop
      vertex -35.500000 12.500000 0.000000
      vertex 34.500000 12.500000 65.000000
      vertex -35.500000 12.500000 65.000000
    endloop
  endfacet
  facet normal 1.000000 0.000000 0.000000
    outer loop
      vertex -35.500000 -12.500000 65.000000
      vertex -35.500000 -12.500000 0.000000
      vertex -35.500000 12.500000 0.000000
    endloop
  endfacet
  facet normal 1.000000 -0.000000 0.000000
    outer loop
      vertex -35.500000 -12.500000 65.000000
      vertex -35.500000 12.500000 0.000000
      vertex -35.500000 12.500000 65.000000
    endloop
  endfacet
endsolid Mesh
